<?xml version="1.0" encoding="utf-8"?>
<!-- Generator: Adobe Illustrator 24.0.1, SVG Export Plug-In . SVG Version: 6.00 Build 0)  -->
<svg version="1.1" id="Layer_1" xmlns="http://www.w3.org/2000/svg" xmlns:xlink="http://www.w3.org/1999/xlink" x="0px" y="0px"
	 viewBox="0 0 512 512" style="enable-background:new 0 0 512 512;" xml:space="preserve">
<style type="text/css">
	.st0{fill:#FFFFFF;}
</style>
<g id="Artwork_2_1_">
	<g>
		<g>
			<g>
				<g>
					<path class="st0" d="M0.9,255.5C1.1,114.6,115.6,0.7,256.6,0.9c140.6,0.3,254.7,114.7,254.5,255.3
						C510.9,397.1,396,511.5,255.4,510.9C114.5,510.3,0.7,396.1,0.9,255.5 M390,310.5c-6.6-4.3-12.9-7.3-18-11.7
						c-32.2-27.8-37.4-78.2-4.8-110.6c4.3-4.3,8.1-9.1,12.4-13.9c-16.1-20.1-37.2-33.2-64.8-30.8c-12.6,1.1-25.2,4.7-37.4,8.5
						c-13,4-25.6,6-38.8,1.7c-6.7-2.2-13.5-3.8-20.3-5.5c-14.6-3.6-29.4-5.3-44.2-1.1c-24.5,7-39.7,24.2-49.7,46.5
						c-10.8,24.2-12.3,49.7-8.8,75.6c4.2,31.5,16.3,60,33.1,86.7c8.3,13.1,17.5,25.5,30.4,34.5c11.3,7.8,23.5,10.1,36.6,6
						c6.2-2,12.3-4.2,18.4-6.5c13.6-5.2,27.3-6.2,41.3-1.9c8.2,2.5,16.4,5,24.5,7.6c16.6,5.2,31.3,1.6,43.8-10.1
						C366.1,364.4,379.8,338.2,390,310.5 M250.1,148.2c36.7,0.8,75.9-48,64.1-79.5C268.9,77.2,249.7,111.2,250.1,148.2"/>
				</g>
			</g>
		</g>
	</g>
</g>
</svg>
